<svg xmlns="http://www.w3.org/2000/svg" version="1.1" xmlns:xlink="http://www.w3.org/1999/xlink" xmlns:svgjs="http://svgjs.dev/svgjs" width="2000" height="1247" viewBox="0 0 2000 1247"><g transform="matrix(1,0,0,1,-1.2121212121212466,0.504858299595071)"><svg viewBox="0 0 396 247" data-background-color="#ffffff" preserveAspectRatio="xMidYMid meet" height="1247" width="2000" xmlns="http://www.w3.org/2000/svg" xmlns:xlink="http://www.w3.org/1999/xlink"><g id="tight-bounds" transform="matrix(1,0,0,1,0.2400000000000091,-0.09999999999999432)"><svg viewBox="0 0 395.52 247.2" height="247.2" width="395.52"><rect width="395.5199890136719" height="247.1999969482422" fill="url(#243b0ffc-5fe3-4a50-be6c-5840071569c1)" mask="url(#22569630-c8d4-4760-9c3b-ecc9813f6444)" data-fill-palette-color="tertiary"></rect><g><svg></svg></g><g><svg viewBox="0 0 395.52 247.2" height="247.2" width="395.52"><g><path xmlns="http://www.w3.org/2000/svg" d="M55.039 247.2l26.403-45.732 232.636 0 26.403 45.732zM197.76 0l26.403 45.732-52.806 0z" fill="url(#243b0ffc-5fe3-4a50-be6c-5840071569c1)" fill-rule="nonzero" stroke="none" stroke-width="1" stroke-linecap="butt" stroke-linejoin="miter" stroke-miterlimit="10" stroke-dasharray="" stroke-dashoffset="0" font-family="none" font-weight="none" font-size="none" text-anchor="none" style="mix-blend-mode: normal" data-fill-palette-color="tertiary"></path></g><g transform="matrix(1,0,0,1,11.542423405665943,67.97999999999999)"><svg viewBox="0 0 372.4351531886681 111.24" height="111.24" width="372.4351531886681"><g><svg viewBox="0 0 374.2973289546114 111.79619999999998" height="111.24" width="372.4351531886681"><g></g><g transform="matrix(1,0,0,1,172.78128655178455,0.2780999999999949)"><svg viewBox="0 0 201.51604240282683 111.24" height="111.24" width="201.51604240282683"><g id="textblocktransform"><svg viewBox="0 0 201.51604240282683 111.24" height="111.24" width="201.51604240282683" id="textblock"><g><svg viewBox="0 0 201.51604240282683 111.24" height="111.24" width="201.51604240282683"><g transform="matrix(1,0,0,1,0,0)"><svg width="201.51604240282683" viewBox="1.350000023841858 -36.5 76.9000015258789 42.45000076293945" height="111.24" data-palette-color="url(#6b1417ed-4e23-4800-8e8d-6865b0fe9974)"></svg></g></svg></g></svg></g></svg></g><g transform="matrix(1,0,0,1,0,0.2780999999999949)"><svg viewBox="0 0 110.22736007210456 111.24" height="111.24" width="110.22736007210456"><g><svg xmlns="http://www.w3.org/2000/svg" xmlns:xlink="http://www.w3.org/1999/xlink" version="1.1" x="0" y="0" viewBox="5.000209808349609 4.586286544799805 90.00062561035156 90.82744598388672" enable-background="new 0 0 100 100" xml:space="preserve" height="111.24" width="110.22736007210456" class="icon-icon-0" data-fill-palette-color="accent" id="icon-0"></svg></g></svg></g></svg></g></svg></g></svg></g><defs></defs><mask id="2a035f54-4ddd-4617-b9b0-018f814bf933"><g id="SvgjsG3011"><svg viewBox="0 0 395.52 247.2" height="247.2" width="395.52"><g><svg></svg></g><g><svg viewBox="0 0 395.52 247.2" height="247.2" width="395.52"><g></g><g transform="matrix(1,0,0,1,11.542423405665943,67.97999999999999)"><svg viewBox="0 0 372.4351531886681 111.24" height="111.24" width="372.4351531886681"><g><svg viewBox="0 0 374.2973289546114 111.79619999999998" height="111.24" width="372.4351531886681"><g><rect width="10.031737999679999" height="111.79619999999998" x="136.48845431210455" y="0" fill="white" opacity="1" stroke-width="0" stroke="transparent" fill-opacity="1" class="rect-o-0" rx="1%" id="SvgjsRect3010" data-palette-color="url(#6b1417ed-4e23-4800-8e8d-6865b0fe9974)"></rect></g><g transform="matrix(1,0,0,1,172.78128655178455,0.2780999999999949)"><svg viewBox="0 0 201.51604240282683 111.24" height="111.24" width="201.51604240282683"><g id="SvgjsG3009"><svg viewBox="0 0 201.51604240282683 111.24" height="111.24" width="201.51604240282683" id="SvgjsSvg3008"><g><svg viewBox="0 0 201.51604240282683 111.24" height="111.24" width="201.51604240282683"><g transform="matrix(1,0,0,1,0,0)"><svg width="201.51604240282683" viewBox="1.350000023841858 -36.5 76.9000015258789 42.45000076293945" height="111.24" data-palette-color="url(#6b1417ed-4e23-4800-8e8d-6865b0fe9974)"><path d="M19.45 5.95L3.65 5.95Q2.45 5.95 1.9 5.4 1.35 4.85 1.35 3.65L1.35 3.65 1.35-2.2Q1.35-2.85 1.53-3.3 1.7-3.75 2.05-4.05L2.05-4.05 7.05-8.25Q4.4-9.05 2.88-10.98 1.35-12.9 1.35-16.5L1.35-16.5 1.35-21.75Q1.35-24 2.1-25.75 2.85-27.5 4.25-28.7L4.25-28.7 10.75-34.15Q12.1-35.25 14.1-35.88 16.1-36.5 18.65-36.5L18.65-36.5 32.65-36.5Q33.85-36.5 34.4-35.95 34.95-35.4 34.95-34.2L34.95-34.2 34.95-28.25Q34.95-27.6 34.77-27.15 34.6-26.7 34.25-26.4L34.25-26.4 29.75-22.65Q32.9-21.95 34.83-20.03 36.75-18.1 36.75-14.05L36.75-14.05 36.75-8.8Q36.75-6.55 36-4.8 35.25-3.05 33.8-1.85L33.8-1.85 27.35 3.55Q25.95 4.7 23.95 5.33 21.95 5.95 19.45 5.95L19.45 5.95ZM10.1 0L25.9 0Q30.7 0 33.48-2.27 36.25-4.55 36.25-8.8L36.25-8.8 36.25-14.05Q36.25-18.25 34.1-20.05 31.95-21.85 28.45-22.35L28.45-22.35 21-23.35Q20.35-23.4 20-23.85 19.65-24.3 19.65-24.95L19.65-24.95Q19.65-25.6 20-26.03 20.35-26.45 21-26.45L21-26.45 32.65-26.45Q33.6-26.45 34.02-26.88 34.45-27.3 34.45-28.25L34.45-28.25 34.45-34.2Q34.45-35.15 34.02-35.58 33.6-36 32.65-36L32.65-36 18.65-36Q13.8-36 11.05-33.73 8.3-31.45 8.3-27.2L8.3-27.2 8.3-21.95Q8.3-17.75 10.43-15.95 12.55-14.15 16.05-13.65L16.05-13.65 23.55-12.6Q24.2-12.55 24.53-12.15 24.85-11.75 24.85-10.9L24.85-10.9Q24.85-10.3 24.53-9.88 24.2-9.45 23.55-9.45L23.55-9.45 10.1-9.45Q9.15-9.45 8.72-9.03 8.3-8.6 8.3-7.65L8.3-7.65 8.3-1.8Q8.3-0.85 8.72-0.43 9.15 0 10.1 0L10.1 0ZM18.85-31.5L29.95-31.5 29.95-31 18.85-31Q16.75-31 15.5-29.85 14.25-28.7 14.25-26.95L14.25-26.95 14.25-22.85Q14.25-21.1 14.95-20.4 15.65-19.7 16.8-19.5L16.8-19.5 27.35-17.35Q28.85-17.05 29.83-16.05 30.8-15.05 30.8-12.45L30.8-12.45 30.8-9.55Q30.8-7.35 29.3-5.93 27.8-4.5 25.25-4.5L25.25-4.5 12.8-4.5 12.8-5 25.25-5Q27.55-5 28.93-6.28 30.3-7.55 30.3-9.55L30.3-9.55 30.3-12.45Q30.3-14.8 29.48-15.68 28.65-16.55 27.25-16.85L27.25-16.85 16.7-19Q15.4-19.25 14.58-20.03 13.75-20.8 13.75-22.85L13.75-22.85 13.75-26.95Q13.75-28.95 15.15-30.23 16.55-31.5 18.85-31.5L18.85-31.5ZM52.6-4.5L52.1-4.5 52.1-31.5 52.6-31.5 52.6-18.25 71.8-18.25 71.8-31.5 72.3-31.5 72.3-4.5 71.8-4.5 71.8-17.75 52.6-17.75 52.6-4.5ZM48.5 0L56.25 0Q57.2 0 57.62-0.43 58.05-0.85 58.05-1.8L58.05-1.8 58.05-12.9 66.4-12.9 66.4-1.8Q66.4-0.85 66.82-0.43 67.25 0 68.2 0L68.2 0 75.95 0Q76.9 0 77.32-0.43 77.75-0.85 77.75-1.8L77.75-1.8 77.75-34.2Q77.75-35.15 77.32-35.58 76.9-36 75.95-36L75.95-36 68.2-36Q67.25-36 66.82-35.58 66.4-35.15 66.4-34.2L66.4-34.2 66.4-23.35 58.05-23.35 58.05-34.2Q58.05-35.15 57.62-35.58 57.2-36 56.25-36L56.25-36 48.5-36Q47.55-36 47.12-35.58 46.7-35.15 46.7-34.2L46.7-34.2 46.7-1.8Q46.7-0.85 47.12-0.43 47.55 0 48.5 0L48.5 0ZM57.85 0.05L57.85 0.05 51.35 5.45Q51.15 5.65 50.72 5.8 50.3 5.95 49.8 5.95L49.8 5.95 42.05 5.95Q40.85 5.95 40.3 5.4 39.75 4.85 39.75 3.65L39.75 3.65 39.75-28.75Q39.75-29.4 39.92-29.85 40.1-30.3 40.45-30.6L40.45-30.6 46.9-36.05Q47.15-36.25 47.57-36.38 48-36.5 48.5-36.5L48.5-36.5 56.25-36.5Q57.45-36.5 58-35.95 58.55-35.4 58.55-34.2L58.55-34.2 58.55-23.85 59.45-23.85 59.45-28.75Q59.45-29.4 59.62-29.85 59.8-30.3 60.15-30.6L60.15-30.6 66.6-36.05Q66.85-36.25 67.27-36.38 67.7-36.5 68.2-36.5L68.2-36.5 75.95-36.5Q77.15-36.5 77.7-35.95 78.25-35.4 78.25-34.2L78.25-34.2 78.25-1.8Q78.25-1.15 78.07-0.7 77.9-0.25 77.55 0.05L77.55 0.05 71.05 5.45Q70.85 5.65 70.42 5.8 70 5.95 69.5 5.95L69.5 5.95 61.75 5.95Q60.55 5.95 60 5.4 59.45 4.85 59.45 3.65L59.45 3.65 59.45-6.95 58.55-6.95 58.55-1.8Q58.55-1.15 58.37-0.7 58.2-0.25 57.85 0.05Z" opacity="1" transform="matrix(1,0,0,1,0,0)" fill="white" class="wordmark-text-0" id="SvgjsPath3007"></path></svg></g></svg></g></svg></g></svg></g><g transform="matrix(1,0,0,1,0,0.2780999999999949)"><svg viewBox="0 0 110.22736007210456 111.24" height="111.24" width="110.22736007210456"><g><svg xmlns="http://www.w3.org/2000/svg" xmlns:xlink="http://www.w3.org/1999/xlink" version="1.1" x="0" y="0" viewBox="5.000209808349609 4.586286544799805 90.00062561035156 90.82744598388672" enable-background="new 0 0 100 100" xml:space="preserve" height="111.24" width="110.22736007210456" class="icon-icon-0" data-fill-palette-color="accent" id="SvgjsSvg3006"></svg></g></svg></g></svg></g></svg></g></svg></g><defs></defs></svg></g></mask><linearGradient x1="0" x2="1" y1="0.578" y2="0.595" id="6b1417ed-4e23-4800-8e8d-6865b0fe9974"><stop stop-color="#6ee2f5" offset="0"></stop><stop stop-color="#6454f0" offset="1"></stop></linearGradient><rect width="395.5199890136719" height="247.1999969482422" fill="url(#6b1417ed-4e23-4800-8e8d-6865b0fe9974)" mask="url(#2a035f54-4ddd-4617-b9b0-018f814bf933)" data-fill-palette-color="primary"></rect><mask id="1dde6c2a-bcfd-421d-8fa0-4c7f93aa387b"><g id="SvgjsG3021"><svg viewBox="0 0 395.52 247.2" height="247.2" width="395.52"><g><svg></svg></g><g><svg viewBox="0 0 395.52 247.2" height="247.2" width="395.52"><g></g><g transform="matrix(1,0,0,1,11.542423405665943,67.97999999999999)"><svg viewBox="0 0 372.4351531886681 111.24" height="111.24" width="372.4351531886681"><g><svg viewBox="0 0 374.2973289546114 111.79619999999998" height="111.24" width="372.4351531886681"><g></g><g transform="matrix(1,0,0,1,172.78128655178455,0.2780999999999949)"><svg viewBox="0 0 201.51604240282683 111.24" height="111.24" width="201.51604240282683"><g id="SvgjsG3020"><svg viewBox="0 0 201.51604240282683 111.24" height="111.24" width="201.51604240282683" id="SvgjsSvg3019"><g><svg viewBox="0 0 201.51604240282683 111.24" height="111.24" width="201.51604240282683"><g transform="matrix(1,0,0,1,0,0)"><svg width="201.51604240282683" viewBox="1.350000023841858 -36.5 76.9000015258789 42.45000076293945" height="111.24" data-palette-color="url(#6b1417ed-4e23-4800-8e8d-6865b0fe9974)"></svg></g></svg></g></svg></g></svg></g><g transform="matrix(1,0,0,1,0,0.2780999999999949)"><svg viewBox="0 0 110.22736007210456 111.24" height="111.24" width="110.22736007210456"><g><svg xmlns="http://www.w3.org/2000/svg" xmlns:xlink="http://www.w3.org/1999/xlink" version="1.1" x="0" y="0" viewBox="5.000209808349609 4.586286544799805 90.00062561035156 90.82744598388672" enable-background="new 0 0 100 100" xml:space="preserve" height="111.24" width="110.22736007210456" class="icon-icon-0" data-fill-palette-color="accent" id="SvgjsSvg3018"><path fill-rule="evenodd" clip-rule="evenodd" d="M28.771 17.173c5.02 1.652 10.008 3.406 15.067 4.925 5.057 1.516 10.115 3.476 15.299 4.009 6.457 0.665 12.558-4.046 14.61-10.262 1.062-3.222 2.696-2.23 4.53-1.064 7.34 4.669 11.965 11.562 14.427 19.615 1.563 5.117 1.782 10.681 2.272 16.075 0.271 2.974-1.71 4.844-4.278 6.18-14.588 7.593-27.94 4.734-41.068-4.049-7.153-4.785-14.787-9.067-22.696-12.418-4.031-1.708-9.145-1.073-13.771-1.102-5.128-0.03-6.927-1.898-4.908-6.463C12.407 23.226 16.86 18.049 28.771 17.173z" fill="white"></path><path fill-rule="evenodd" clip-rule="evenodd" d="M5.006 54.279c-0.057-7.91 0.199-7.67 5.821-8.992 11.541-2.715 20.914 1.757 29.956 7.999 6.697 4.621 13.166 9.583 21.258 11.819 8.952 2.476 17.654 2.253 26.341-1.026 1.229-0.463 2.712-0.253 4.077-0.354-0.207 1.363-0.17 2.824-0.66 4.075-5.368 13.711-21.246 16.426-34.401 10.659-3.896-1.708-7.819-3.488-11.901-4.616-8.061-2.228-15.919 1.389-19.252 8.956-1.49 3.38-2.824 3.047-5.266 1.246C10.23 76.111 6.221 64.851 5.006 54.279z" fill="white"></path><path fill-rule="evenodd" clip-rule="evenodd" d="M72.867 89.96c-5.53 1.722-10.052 3.428-14.719 4.514-7.909 1.84-15.677 0.96-23.056-2.482-4.632-2.162-5.158-7.041-1.304-10.342 3.779-3.238 8.233-3.479 12.464-1.9 7.835 2.926 15.173 7.26 23.797 7.833C70.636 87.621 71.17 88.493 72.867 89.96z" fill="white"></path><path fill-rule="evenodd" clip-rule="evenodd" d="M28.966 9.381c4.194-1.357 8.302-3.201 12.601-3.964 7.153-1.27 14.361-1.303 21.349 1.462 3.164 1.251 5.53 3.192 5.36 6.673-0.173 3.499-2.896 5.705-6.016 6.109-3.469 0.449-7.273 0.376-10.602-0.593-7.012-2.042-13.809-4.815-20.69-7.3-0.586-0.213-1.14-0.517-1.71-0.778C29.162 10.453 29.063 9.917 28.966 9.381z" fill="white"></path></svg></g></svg></g></svg></g></svg></g></svg></g><defs></defs><mask><g id="SvgjsG3017"><svg viewBox="0 0 395.52 247.2" height="247.2" width="395.52"><g><svg></svg></g><g><svg viewBox="0 0 395.52 247.2" height="247.2" width="395.52"><g></g><g transform="matrix(1,0,0,1,11.542423405665943,67.97999999999999)"><svg viewBox="0 0 372.4351531886681 111.24" height="111.24" width="372.4351531886681"><g><svg viewBox="0 0 374.2973289546114 111.79619999999998" height="111.24" width="372.4351531886681"><g></g><g transform="matrix(1,0,0,1,172.78128655178455,0.2780999999999949)"><svg viewBox="0 0 201.51604240282683 111.24" height="111.24" width="201.51604240282683"><g id="SvgjsG3015"><svg viewBox="0 0 201.51604240282683 111.24" height="111.24" width="201.51604240282683" id="SvgjsSvg3014"><g><svg viewBox="0 0 201.51604240282683 111.24" height="111.24" width="201.51604240282683"><g transform="matrix(1,0,0,1,0,0)"><svg width="201.51604240282683" viewBox="1.350000023841858 -36.5 76.9000015258789 42.45000076293945" height="111.24" data-palette-color="url(#6b1417ed-4e23-4800-8e8d-6865b0fe9974)"></svg></g></svg></g></svg></g></svg></g><g transform="matrix(1,0,0,1,0,0.2780999999999949)"><svg viewBox="0 0 110.22736007210456 111.24" height="111.24" width="110.22736007210456"><g><svg xmlns="http://www.w3.org/2000/svg" xmlns:xlink="http://www.w3.org/1999/xlink" version="1.1" x="0" y="0" viewBox="5.000209808349609 4.586286544799805 90.00062561035156 90.82744598388672" enable-background="new 0 0 100 100" xml:space="preserve" height="111.24" width="110.22736007210456" class="icon-icon-0" data-fill-palette-color="accent" id="SvgjsSvg3012"></svg></g></svg></g></svg></g></svg></g></svg></g><defs></defs></svg></g></mask></svg></g></mask><linearGradient x1="0" x2="1" y1="0.548" y2="0.55" id="1e37ac20-0a49-4c11-bcfd-03a3cb0a37fa"><stop stop-color="#ff6cab" offset="0"></stop><stop stop-color="#7366ff" offset="1"></stop></linearGradient><rect width="395.5199890136719" height="247.1999969482422" fill="url(#1e37ac20-0a49-4c11-bcfd-03a3cb0a37fa)" mask="url(#1dde6c2a-bcfd-421d-8fa0-4c7f93aa387b)" data-fill-palette-color="accent"></rect><mask id="22569630-c8d4-4760-9c3b-ecc9813f6444"><g id="SvgjsG3039"><svg viewBox="0 0 395.52 247.2" height="247.2" width="395.52"><g><svg></svg></g><g><svg viewBox="0 0 395.52 247.2" height="247.2" width="395.52"><g><path xmlns="http://www.w3.org/2000/svg" d="M55.039 247.2l26.403-45.732 232.636 0 26.403 45.732zM197.76 0l26.403 45.732-52.806 0z" fill="white" fill-rule="nonzero" stroke="none" stroke-width="1" stroke-linecap="butt" stroke-linejoin="miter" stroke-miterlimit="10" stroke-dasharray="" stroke-dashoffset="0" font-family="none" font-weight="none" font-size="none" text-anchor="none" style="mix-blend-mode: normal"></path></g><g transform="matrix(1,0,0,1,11.542423405665943,67.97999999999999)"><svg viewBox="0 0 372.4351531886681 111.24" height="111.24" width="372.4351531886681"><g><svg viewBox="0 0 374.2973289546114 111.79619999999998" height="111.24" width="372.4351531886681"><g></g><g transform="matrix(1,0,0,1,172.78128655178455,0.2780999999999949)"><svg viewBox="0 0 201.51604240282683 111.24" height="111.24" width="201.51604240282683"><g id="SvgjsG3038"><svg viewBox="0 0 201.51604240282683 111.24" height="111.24" width="201.51604240282683" id="SvgjsSvg3037"><g><svg viewBox="0 0 201.51604240282683 111.24" height="111.24" width="201.51604240282683"><g transform="matrix(1,0,0,1,0,0)"><svg width="201.51604240282683" viewBox="1.350000023841858 -36.5 76.9000015258789 42.45000076293945" height="111.24" data-palette-color="url(#6b1417ed-4e23-4800-8e8d-6865b0fe9974)"></svg></g></svg></g></svg></g></svg></g><g transform="matrix(1,0,0,1,0,0.2780999999999949)"><svg viewBox="0 0 110.22736007210456 111.24" height="111.24" width="110.22736007210456"><g><svg xmlns="http://www.w3.org/2000/svg" xmlns:xlink="http://www.w3.org/1999/xlink" version="1.1" x="0" y="0" viewBox="5.000209808349609 4.586286544799805 90.00062561035156 90.82744598388672" enable-background="new 0 0 100 100" xml:space="preserve" height="111.24" width="110.22736007210456" class="icon-icon-0" data-fill-palette-color="accent" id="SvgjsSvg3036"></svg></g></svg></g></svg></g></svg></g></svg></g><defs></defs><mask><g id="SvgjsG3035"><svg viewBox="0 0 395.52 247.2" height="247.2" width="395.52"><g><svg></svg></g><g><svg viewBox="0 0 395.52 247.2" height="247.2" width="395.52"><g></g><g transform="matrix(1,0,0,1,11.542423405665943,67.97999999999999)"><svg viewBox="0 0 372.4351531886681 111.24" height="111.24" width="372.4351531886681"><g><svg viewBox="0 0 374.2973289546114 111.79619999999998" height="111.24" width="372.4351531886681"><g></g><g transform="matrix(1,0,0,1,172.78128655178455,0.2780999999999949)"><svg viewBox="0 0 201.51604240282683 111.24" height="111.24" width="201.51604240282683"><g id="SvgjsG3033"><svg viewBox="0 0 201.51604240282683 111.24" height="111.24" width="201.51604240282683" id="SvgjsSvg3032"><g><svg viewBox="0 0 201.51604240282683 111.24" height="111.24" width="201.51604240282683"><g transform="matrix(1,0,0,1,0,0)"><svg width="201.51604240282683" viewBox="1.350000023841858 -36.5 76.9000015258789 42.45000076293945" height="111.24" data-palette-color="url(#6b1417ed-4e23-4800-8e8d-6865b0fe9974)"></svg></g></svg></g></svg></g></svg></g><g transform="matrix(1,0,0,1,0,0.2780999999999949)"><svg viewBox="0 0 110.22736007210456 111.24" height="111.24" width="110.22736007210456"><g><svg xmlns="http://www.w3.org/2000/svg" xmlns:xlink="http://www.w3.org/1999/xlink" version="1.1" x="0" y="0" viewBox="5.000209808349609 4.586286544799805 90.00062561035156 90.82744598388672" enable-background="new 0 0 100 100" xml:space="preserve" height="111.24" width="110.22736007210456" class="icon-icon-0" data-fill-palette-color="accent" id="SvgjsSvg3030"></svg></g></svg></g></svg></g></svg></g></svg></g><defs></defs></svg></g></mask><mask><g id="SvgjsG3029"><svg viewBox="0 0 395.52 247.2" height="247.2" width="395.52"><g><svg></svg></g><g><svg viewBox="0 0 395.52 247.2" height="247.2" width="395.52"><g></g><g transform="matrix(1,0,0,1,11.542423405665943,67.97999999999999)"><svg viewBox="0 0 372.4351531886681 111.24" height="111.24" width="372.4351531886681"><g><svg viewBox="0 0 374.2973289546114 111.79619999999998" height="111.24" width="372.4351531886681"><g></g><g transform="matrix(1,0,0,1,172.78128655178455,0.2780999999999949)"><svg viewBox="0 0 201.51604240282683 111.24" height="111.24" width="201.51604240282683"><g id="SvgjsG3028"><svg viewBox="0 0 201.51604240282683 111.24" height="111.24" width="201.51604240282683" id="SvgjsSvg3027"><g><svg viewBox="0 0 201.51604240282683 111.24" height="111.24" width="201.51604240282683"><g transform="matrix(1,0,0,1,0,0)"><svg width="201.51604240282683" viewBox="1.350000023841858 -36.5 76.9000015258789 42.45000076293945" height="111.24" data-palette-color="url(#6b1417ed-4e23-4800-8e8d-6865b0fe9974)"></svg></g></svg></g></svg></g></svg></g><g transform="matrix(1,0,0,1,0,0.2780999999999949)"><svg viewBox="0 0 110.22736007210456 111.24" height="111.24" width="110.22736007210456"><g><svg xmlns="http://www.w3.org/2000/svg" xmlns:xlink="http://www.w3.org/1999/xlink" version="1.1" x="0" y="0" viewBox="5.000209808349609 4.586286544799805 90.00062561035156 90.82744598388672" enable-background="new 0 0 100 100" xml:space="preserve" height="111.24" width="110.22736007210456" class="icon-icon-0" data-fill-palette-color="accent" id="SvgjsSvg3026"></svg></g></svg></g></svg></g></svg></g></svg></g><defs></defs><mask><g id="SvgjsG3025"><svg viewBox="0 0 395.52 247.2" height="247.2" width="395.52"><g><svg></svg></g><g><svg viewBox="0 0 395.52 247.2" height="247.2" width="395.52"><g></g><g transform="matrix(1,0,0,1,11.542423405665943,67.97999999999999)"><svg viewBox="0 0 372.4351531886681 111.24" height="111.24" width="372.4351531886681"><g><svg viewBox="0 0 374.2973289546114 111.79619999999998" height="111.24" width="372.4351531886681"><g></g><g transform="matrix(1,0,0,1,172.78128655178455,0.2780999999999949)"><svg viewBox="0 0 201.51604240282683 111.24" height="111.24" width="201.51604240282683"><g id="SvgjsG3024"><svg viewBox="0 0 201.51604240282683 111.24" height="111.24" width="201.51604240282683" id="SvgjsSvg3023"><g><svg viewBox="0 0 201.51604240282683 111.24" height="111.24" width="201.51604240282683"><g transform="matrix(1,0,0,1,0,0)"><svg width="201.51604240282683" viewBox="1.350000023841858 -36.5 76.9000015258789 42.45000076293945" height="111.24" data-palette-color="url(#6b1417ed-4e23-4800-8e8d-6865b0fe9974)"></svg></g></svg></g></svg></g></svg></g><g transform="matrix(1,0,0,1,0,0.2780999999999949)"><svg viewBox="0 0 110.22736007210456 111.24" height="111.24" width="110.22736007210456"><g><svg xmlns="http://www.w3.org/2000/svg" xmlns:xlink="http://www.w3.org/1999/xlink" version="1.1" x="0" y="0" viewBox="5.000209808349609 4.586286544799805 90.00062561035156 90.82744598388672" enable-background="new 0 0 100 100" xml:space="preserve" height="111.24" width="110.22736007210456" class="icon-icon-0" data-fill-palette-color="accent" id="SvgjsSvg3022"></svg></g></svg></g></svg></g></svg></g></svg></g><defs></defs></svg></g></mask></svg></g></mask></svg></g></mask><linearGradient x1="0" x2="1" y1="0.578" y2="0.595" id="243b0ffc-5fe3-4a50-be6c-5840071569c1"><stop stop-color="#6ee2f5" offset="0"></stop><stop stop-color="#6454f0" offset="1"></stop></linearGradient></svg><rect width="395.52" height="247.2" fill="none" stroke="none" visibility="hidden"></rect></g></svg></g></svg>