<svg viewBox="0 0 32 30" fill="none" xmlns="http://www.w3.org/2000/svg" width="200" style="display: block; margin: auto;">
    <path fill-rule="evenodd" clip-rule="evenodd" d="m13.673 32.52.198.043 1.561-3.17a13.153 13.153 0 0 0 13.475-9.463l-2.053-.444a11.021 11.021 0 0 1-12.008 7.72l-.222 1.022-.23 1.066-.721 3.226Z" fill="#9496B0"></path><path fill-rule="evenodd" clip-rule="evenodd" d="m32.571 18.692-.044.199-3.23-.702-1.062-.23-1.022-.222a11.021 11.021 0 0 0-7.72-12.007l.452-2.085a13.141 13.141 0 0 1 9.468 13.474l3.158 1.573Z" fill="#696C8E"></path><path fill-rule="evenodd" clip-rule="evenodd" d="M24.736 14.595v3.207a1.645 1.645 0 0 1-1.64 1.636h-3.488v3.492a1.644 1.644 0 0 1-1.64 1.64H15.36l1.676-8.072.25-1.19-9.27 1.93v-2.63a1.64 1.64 0 0 1 1.641-1.637h3.488V9.467a1.64 1.64 0 0 1 1.636-1.636h3.207a1.645 1.645 0 0 1 1.64 1.636v3.492h3.488a1.64 1.64 0 0 1 1.62 1.636Z" fill="#404361"></path><path fill-rule="evenodd" clip-rule="evenodd" d="M3.65 12.618a13.161 13.161 0 0 1 13.49-9.447L18.7 0l.199.043-.701 3.23-.23 1.062-.23 1.014a11.02 11.02 0 0 0-12 7.728l-2.089-.46Z" fill="#9496B0"></path><path fill-rule="evenodd" clip-rule="evenodd" d="m16.233 16.331-1.066 5.144-.903 4.328-1.4-6.103-6.102-1.4 4.327-.899 5.144-1.07Z" fill="#F6A081"></path><path fill-rule="evenodd" clip-rule="evenodd" d="M.044 13.664 0 13.862l3.17 1.561a13.153 13.153 0 0 0 9.464 13.475l.456-2.089a11.017 11.017 0 0 1-7.732-11.988l-1.022-.226-1.067-.23-3.225-.701Z" fill="#696C8E"></path>
</svg>